<svg width="23" height="9" viewBox="0 0 23 9" fill="none" xmlns="http://www.w3.org/2000/svg">
<path d="M5.36914 0.46875H6.49414V9H5.36914V2.42578L1.16797 9H0.0371094V0.46875H1.16797V7.04297L5.36914 0.46875ZM12.1454 7.56445L14.3016 2.66016H15.6552V9H14.5712V4.38867L12.5204 9H11.7704L9.67859 4.28906V9H8.59461V2.66016H10.0009L12.1454 7.56445ZM22.367 2.66016V9H21.2771V6.5332H19.6423L18.1482 9H16.9763L18.5701 6.36914C18.1638 6.2207 17.8513 5.99219 17.6326 5.68359C17.4177 5.37109 17.3103 5.00781 17.3103 4.59375C17.3103 4.01562 17.5271 3.55078 17.9607 3.19922C18.3943 2.84375 18.9744 2.66406 19.7009 2.66016H22.367ZM18.4002 4.60547C18.4002 4.91406 18.5056 5.16406 18.7166 5.35547C18.9275 5.54297 19.2068 5.63867 19.5545 5.64258H21.2771V3.53906H19.7185C19.3162 3.53906 18.9959 3.63867 18.7576 3.83789C18.5193 4.0332 18.4002 4.28906 18.4002 4.60547Z" fill="#757575"/>
</svg>
